<svg version="1.1" id="Layer_1" xmlns="http://www.w3.org/2000/svg" xmlns:xlink="http://www.w3.org/1999/xlink" x="0px" y="0px"
	 width="100%" viewBox="0 0 1024 1024" enable-background="new 0 0 1024 1024" xml:space="preserve">
<path fill="#FEFEFF" opacity="1.000000" stroke="none" 
	d="
M503.000000,1025.000000 
	C336.833344,1025.000000 171.166656,1024.985352 5.500062,1025.093872 
	C1.750669,1025.096436 0.905801,1024.249146 0.906913,1020.500000 
	C1.007246,682.166687 1.007246,343.833344 0.906913,5.500028 
	C0.905801,1.750903 1.750902,0.905800 5.500028,0.906912 
	C343.833344,1.007255 682.166687,1.007255 1020.500000,0.906912 
	C1024.249146,0.905800 1025.094360,1.750902 1025.093262,5.500027 
	C1024.992920,343.833344 1024.992798,682.166687 1025.093140,1020.500000 
	C1025.094238,1024.249146 1024.249268,1025.096191 1020.499939,1025.093872 
	C848.166687,1024.985840 675.833313,1025.000000 503.000000,1025.000000 
z"/>
<path fill="#201F21" opacity="1.000000" stroke="none" 
	d="
M653.983582,443.976624 
	C664.447693,429.327606 674.652832,414.930389 685.078369,400.694611 
	C686.889771,398.221191 686.188904,397.455872 684.118103,395.812561 
	C659.897644,376.592010 664.120728,339.094574 691.790283,326.919037 
	C711.941895,318.051666 735.973145,328.482666 743.793762,349.491516 
	C751.950134,371.402283 740.006104,395.211243 717.465576,401.914490 
	C715.719727,402.433716 713.916504,402.820007 712.112671,403.074402 
	C703.867676,404.237061 703.716736,404.217957 704.037598,412.407990 
	C705.877258,459.362610 707.765076,506.315369 709.706726,553.265930 
	C710.074341,562.155090 709.755615,571.093018 711.259460,581.792542 
	C716.254272,576.474915 720.198364,572.029236 724.399902,567.842041 
	C756.033997,536.316040 787.681458,504.803101 819.458557,473.421600 
	C822.013123,470.898895 822.169861,469.616333 819.957947,466.701172 
	C803.499329,445.009521 812.492065,414.108215 837.413696,406.072296 
	C857.421265,399.620880 879.837402,412.306244 884.843506,432.912933 
	C889.944885,453.911865 876.156494,475.319275 855.142090,479.049957 
	C851.356262,479.722046 847.457031,480.648773 843.754028,479.538910 
	C839.290833,478.201263 837.708130,480.231506 836.204407,483.934021 
	C817.570984,529.814453 798.799805,575.638977 780.117310,621.499573 
	C775.102051,633.810608 770.477356,646.283936 765.302002,658.525757 
	C755.911133,680.739014 755.040222,704.110352 755.541870,727.659546 
	C755.817322,740.593018 759.204529,752.964233 763.355225,765.144592 
	C766.523376,774.441711 764.799683,777.895142 755.399231,780.717285 
	C733.171814,787.390198 710.366150,791.269226 687.378784,793.949951 
	C596.551270,804.542297 505.454071,803.945374 414.316986,799.758179 
	C375.040924,797.953735 335.899811,794.389526 297.378815,785.974121 
	C289.593567,784.273315 281.885468,782.150391 274.245392,779.874146 
	C267.332825,777.814575 264.968628,773.644104 267.664093,766.882751 
	C279.224701,737.884277 277.717224,708.121216 272.904358,678.282104 
	C270.915161,665.949341 265.049438,654.672180 260.423462,643.123596 
	C238.992706,589.622314 217.365784,536.199646 195.896484,482.713776 
	C194.699890,479.732758 193.440231,478.944824 190.073868,479.534485 
	C174.640823,482.237701 159.077072,474.533844 151.235245,460.768738 
	C143.827438,447.765472 145.255951,430.083862 154.649704,418.505920 
	C164.647003,406.183960 180.477585,401.303741 195.001587,406.066193 
	C219.579941,414.125610 228.688766,444.344818 212.689987,465.949493 
	C209.830124,469.811401 210.697815,471.377533 213.551163,474.205597 
	C248.941055,509.280975 284.218323,544.469971 319.531403,579.622986 
	C319.851776,579.941833 320.264404,580.168030 321.215027,580.861206 
	C321.422302,576.939697 321.665436,573.523438 321.774292,570.102844 
	C323.454834,517.304993 325.118622,464.506592 326.784515,411.708221 
	C327.020172,404.239777 327.015900,404.239594 319.741364,403.214783 
	C303.156525,400.878296 288.750671,387.587463 286.009827,372.094025 
	C282.824341,354.086975 290.769104,336.771973 306.073273,328.367279 
	C322.755951,319.205536 343.312225,323.733887 355.268799,339.204559 
	C367.043671,354.440155 365.990967,376.307587 352.783264,390.567352 
	C351.765137,391.666534 350.702423,392.730103 349.600342,393.744934 
	C344.305908,398.620392 344.441925,398.509216 348.898041,404.701691 
	C380.311646,448.356171 411.661499,492.056580 443.032349,535.741882 
	C443.789276,536.795959 444.553436,537.844849 445.625763,539.326599 
	C452.391357,518.840332 459.027313,498.873932 465.579163,478.879974 
	C477.840027,441.464142 490.052643,404.032501 502.281586,366.606232 
	C502.642517,365.501648 502.837128,364.325195 503.324097,363.282623 
	C504.704529,360.327240 503.792023,359.488342 500.597321,358.896210 
	C473.673187,353.906006 452.560760,332.765289 447.341614,305.897522 
	C439.763458,266.885925 468.004578,229.547058 507.589111,224.775177 
	C545.516541,220.203064 577.123474,247.553864 583.555969,280.052460 
	C590.627991,315.782410 565.827698,352.969147 530.190674,358.973328 
	C527.534790,359.420776 526.274597,359.895447 527.278320,362.963043 
	C546.353088,421.260376 564.820312,479.757324 584.788818,537.760620 
	C584.934998,538.185242 585.204895,538.567322 585.761169,539.621582 
	C608.604187,507.612823 631.201782,475.947998 653.983582,443.976624 
z"/>
<path fill="#FCFCFD" opacity="1.000000" stroke="none" 
	d="
M531.357300,743.351929 
	C526.855408,747.331543 522.517883,750.971069 518.410950,754.854431 
	C516.652222,756.517517 515.569153,756.930969 513.545105,755.103333 
	C500.335510,743.175659 487.040741,731.340942 473.659882,719.605713 
	C471.602722,717.801575 472.137299,717.030701 473.848297,715.507812 
	C487.266998,703.564697 500.628571,691.556763 513.922546,679.475037 
	C515.539307,678.005798 516.368347,678.115479 517.941650,679.540894 
	C531.255981,691.603943 544.611633,703.623291 558.105042,715.485046 
	C560.496338,717.587219 559.441895,718.395142 557.726807,719.900513 
	C548.974670,727.582275 540.310242,735.363892 531.357300,743.351929 
z"/>
<path fill="#FBFBFB" opacity="1.000000" stroke="none" 
	d="
M641.853088,753.833130 
	C636.152100,754.665771 630.852173,755.267151 625.636230,756.295044 
	C623.332458,756.749146 622.752930,756.272705 622.712097,754.037415 
	C622.504822,742.712341 622.269287,731.386292 621.851624,720.067688 
	C621.744751,717.169922 622.850952,716.783630 625.322998,717.170166 
	C645.203674,720.278320 665.092468,723.334351 684.985107,726.365173 
	C704.382507,729.320557 723.787659,732.225342 743.187500,735.164795 
	C743.796204,735.257019 744.562500,735.142456 745.090027,736.920227 
	C710.867310,743.267090 676.524719,748.215210 641.853088,753.833130 
z"/>
<path fill="#FBFBFC" opacity="1.000000" stroke="none" 
	d="
M372.423096,722.493469 
	C383.363953,720.696167 393.895050,719.095947 404.388031,717.276001 
	C407.702606,716.701172 409.098846,717.084656 408.903046,721.037048 
	C408.383728,731.518677 408.264923,742.022827 408.146942,752.519836 
	C408.116119,755.264954 407.606750,756.235107 404.486786,755.741028 
	C366.212341,749.680603 327.913361,743.775146 289.624664,737.804138 
	C288.370117,737.608459 286.969147,737.623352 285.420654,735.651855 
	C314.623932,731.251282 343.311279,726.928467 372.423096,722.493469 
z"/>
</svg>